<?xml version="1.0" standalone="no"?>
<!DOCTYPE svg PUBLIC "-//W3C//DTD SVG 20010904//EN"
 "http://www.w3.org/TR/2001/REC-SVG-20010904/DTD/svg10.dtd">
<svg version="1.0" xmlns="http://www.w3.org/2000/svg"
 width="1042.000000pt" height="1042.000000pt" viewBox="0 0 1042.000000 1042.000000"
 preserveAspectRatio="xMidYMid meet">
<metadata>
Created by potrace 1.11, written by Peter Selinger 2001-2013
</metadata>
<g transform="translate(0.000000,1042.000000) scale(0.100000,-0.100000)"
fill="#000000" stroke="none">
<path d="M4852 10409 c-1586 -107 -3029 -932 -3940 -2251 -980 -1420 -1185
-3263 -541 -4883 80 -202 251 -547 364 -735 564 -937 1410 -1680 2400 -2108
518 -224 1018 -351 1605 -408 282 -27 783 -22 1060 11 1192 143 2250 655 3090
1495 840 840 1352 1898 1495 3090 48 397 37 950 -26 1370 -148 986 -567 1889
-1228 2649 -140 161 -408 424 -570 560 -867 724 -1903 1139 -3026 1211 -183
11 -502 11 -683 -1z m-1312 -2154 c251 -38 453 -101 675 -210 245 -120 405
-236 628 -454 216 -212 358 -398 470 -619 120 -236 174 -411 233 -757 4 -22 9
-250 11 -507 l4 -468 -1378 0 c-758 0 -1706 -3 -2106 -7 l-729 -6 7 -131 c13
-249 49 -429 126 -621 184 -460 588 -852 1059 -1028 316 -118 676 -145 1014
-76 252 51 497 166 720 337 l58 45 197 -197 196 -197 -25 -20 c-88 -70 -286
-192 -415 -255 -252 -123 -544 -205 -838 -235 -158 -15 -527 -7 -677 16 -162
24 -398 86 -535 139 -561 220 -970 592 -1230 1121 -105 213 -163 388 -207 630
-19 100 -21 161 -25 695 -3 392 -1 621 7 695 54 536 288 1011 700 1425 392
393 869 630 1390 689 52 6 109 13 125 15 73 9 447 -4 545 -19z m4145 -9 c495
-72 910 -279 1279 -636 412 -400 637 -847 708 -1410 18 -148 18 -1222 0 -1370
-92 -726 -469 -1312 -1074 -1671 -256 -152 -507 -244 -823 -300 -151 -27 -535
-38 -707 -20 -248 26 -526 98 -739 191 -237 105 -456 265 -761 559 l-88 84 0
-1227 0 -1226 -252 2 -253 3 0 1890 0 1890 301 3 302 2 12 -82 c63 -445 253
-847 516 -1098 261 -248 594 -421 930 -481 170 -31 468 -31 638 0 374 67 700
248 983 545 272 285 430 625 472 1018 17 152 14 1108 -4 1239 -61 465 -285
851 -670 1160 -270 217 -608 355 -913 375 -42 2 -100 7 -127 9 -77 7 -316 -13
-428 -36 -416 -84 -791 -321 -1069 -675 l-50 -64 -37 33 c-150 129 -381 343
-381 352 0 19 195 239 286 322 424 389 860 584 1424 637 87 8 426 -4 525 -18z"/>
<path d="M3005 7699 c-214 -17 -416 -73 -610 -168 -447 -220 -817 -639 -959
-1089 -50 -158 -71 -289 -82 -509 l-6 -133 1812 0 1813 0 -6 188 c-4 134 -12
215 -27 286 -79 371 -234 643 -527 926 -158 153 -278 240 -448 325 -208 103
-388 154 -625 175 -129 11 -190 11 -335 -1z"/>
</g>
</svg>
